<?xml version="1.0" encoding="UTF-8"?>
<svg width="1024px" height="1024px" viewBox="0 0 1024 1024" version="1.1" xmlns="http://www.w3.org/2000/svg" xmlns:xlink="http://www.w3.org/1999/xlink">
    <title>切片</title>
    <defs>
        <linearGradient x1="32.812493%" y1="9.48823416%" x2="65.5585798%" y2="91.8821351%" id="linearGradient-1">
            <stop stop-color="#D83BEC" offset="0%"></stop>
            <stop stop-color="#512CE3" offset="87%"></stop>
        </linearGradient>
        <linearGradient x1="44.9859307%" y1="37.4124568%" x2="56.3561327%" y2="63.8346686%" id="linearGradient-2">
            <stop stop-color="#FFFFFF" stop-opacity="0" offset="0%"></stop>
            <stop stop-color="#FFFFFF" offset="100%"></stop>
        </linearGradient>
    </defs>
    <g id="上传" stroke="none" stroke-width="1" fill="none" fill-rule="evenodd">
        <g id="1024-logo" fill-rule="nonzero">
            <g id="LOGO-彩色">
                <path d="M979.471417,647.845698 L978.405142,647.831743 C978.371801,647.831456 978.338461,647.831183 978.305123,647.830924 C978.109138,647.829403 977.913093,647.828366 977.717085,647.827814 C977.491127,647.827178 977.265169,647.827185 977.039261,647.827837 C976.877394,647.828304 976.71572,647.8291 976.554074,647.830226 C976.256839,647.832296 975.959526,647.835482 975.662312,647.839781 C975.553539,647.841354 975.444892,647.843075 975.336258,647.844944 C975.027245,647.850262 974.718272,647.856784 974.409414,647.864507 C974.2829,647.867671 974.156263,647.87104 974.029646,647.874611 C973.723762,647.883238 973.41815,647.893038 973.112661,647.904013 C972.98785,647.908497 972.86318,647.913172 972.738531,647.918043 C972.471648,647.928471 972.204563,647.93981 971.937578,647.952045 C971.762382,647.960075 971.587701,647.968467 971.413065,647.977243 C970.622968,648.016945 969.833321,648.064535 969.044693,648.119951 L968.880258,648.131621 C968.797857,648.137526 968.715467,648.143516 968.633089,648.149592 C968.331275,648.171851 968.029264,648.195286 967.727413,648.219867 C967.547625,648.234508 967.368248,648.249526 967.188928,648.264949 C966.939072,648.286437 966.688794,648.30876 966.438632,648.331872 C966.287587,648.345827 966.137245,648.360006 965.986946,648.37447 C965.726752,648.399507 965.466054,648.425462 965.205489,648.452273 C965.016619,648.471707 964.828317,648.491537 964.640086,648.511814 C964.437314,648.533656 964.234329,648.55605 964.031428,648.578963 C963.814162,648.603499 963.597217,648.628604 963.38037,648.654301 C963.211339,648.674332 963.041925,648.694777 962.872573,648.715584 C962.621388,648.746447 962.370753,648.778051 962.120256,648.810449 C961.961272,648.83101 961.802243,648.851904 961.64327,648.873118 C961.408875,648.904396 961.174682,648.936357 960.940616,648.96901 C960.535468,649.02553 960.130597,649.084141 959.726121,649.144821 C959.614767,649.161526 959.503011,649.178454 959.391287,649.195541 C959.086334,649.242178 958.781812,649.289959 958.477524,649.338915 C958.336137,649.361662 958.195118,649.38461 958.05415,649.407811 C957.793435,649.450719 957.532765,649.494511 957.272273,649.539164 C957.087759,649.570793 956.903042,649.602906 956.718417,649.635452 C956.503137,649.673402 956.288189,649.711902 956.073367,649.75099 C955.878726,649.786406 955.684333,649.822277 955.490045,649.858628 C955.240383,649.905339 954.990379,649.952943 954.740554,650.001342 C954.59851,650.028861 954.457216,650.056501 954.315979,650.084395 C954.084981,650.130016 953.853534,650.17644 953.622247,650.223548 C953.412246,650.266319 953.202355,650.309658 952.992598,650.353559 C952.842993,650.384872 952.693911,650.416373 952.544898,650.448158 C952.300596,650.500268 952.056253,650.553191 951.812098,650.606878 C951.611061,650.651083 951.41008,650.695822 951.209227,650.741079 C950.916247,650.807094 950.623674,650.874179 950.331383,650.942363 C950.006413,651.018168 949.681676,651.095359 949.357295,651.173904 C949.318067,651.183403 949.279032,651.192876 949.240001,651.202369 C948.881852,651.289474 948.523899,651.378292 948.166395,651.46876 C948.029218,651.503474 947.892547,651.538318 947.755942,651.573403 C947.511755,651.636119 947.26771,651.699624 947.02388,651.763899 C946.855362,651.808321 946.686385,651.853261 946.517514,651.898571 C946.267126,651.965754 946.017535,652.033594 945.768178,652.102241 C945.604562,652.147284 945.44087,652.192724 945.277279,652.238513 C945.055198,652.300673 944.833141,652.363521 944.611275,652.427011 C944.438645,652.476412 944.266357,652.526135 944.094186,652.576245 C943.353375,652.791857 942.614658,653.014655 941.878207,653.244584 L941.72362,653.292963 L941.72362,653.292963 L941.698472,653.300855 C941.318723,653.420075 940.939579,653.541193 940.561056,653.664202 C940.415969,653.711351 940.270876,653.75881 940.125875,653.806547 C939.849852,653.897419 939.574309,653.98925 939.299105,654.082085 C939.210227,654.112067 939.121167,654.142227 939.032142,654.172492 C938.73048,654.275047 938.429268,654.378796 938.128473,654.483751 C937.979618,654.535691 937.831264,654.587785 937.683013,654.640172 C937.465888,654.716897 937.248851,654.794299 937.032038,654.872329 C936.852199,654.937052 936.672228,655.002312 936.492412,655.068006 C936.243769,655.158846 935.995739,655.250398 935.748009,655.342775 C935.619048,655.390864 935.490078,655.439211 935.36119,655.487781 C935.098388,655.586816 934.835976,655.686764 934.573911,655.78764 C934.44266,655.838162 934.311118,655.889063 934.179665,655.940199 C933.495614,656.206299 932.814473,656.478524 932.135813,656.757043 C931.80625,656.892294 931.477215,657.029054 931.148777,657.167295 C931.023831,657.219885 930.898964,657.272693 930.774183,657.325715 C930.59958,657.399908 930.42513,657.474527 930.250853,657.549566 C930.002961,657.656299 929.755365,657.763904 929.50812,657.872355 C929.410922,657.91499 929.313872,657.957714 929.216877,658.000569 C928.930692,658.127012 928.644991,658.254587 928.359773,658.383296 C928.252728,658.4316 928.145397,658.480226 928.038134,658.529013 C927.76035,658.655359 927.483416,658.782601 927.206949,658.910915 C927.087992,658.966125 926.969003,659.021589 926.850102,659.077252 C926.612906,659.188292 926.375914,659.30019 926.139273,659.412879 C925.983322,659.487144 925.82805,659.561499 925.672929,659.636194 C925.410684,659.762472 925.148197,659.890054 924.886154,660.018613 C924.78531,660.068088 924.6851,660.117427 924.584956,660.166908 C924.381591,660.26739 924.178019,660.3687 923.97472,660.4706 C923.65051,660.633105 923.326971,660.797126 923.004138,660.962646 C922.770672,661.082348 922.538169,661.202525 922.306039,661.32348 C922.233282,661.361391 922.159788,661.399782 922.086332,661.438252 C921.817732,661.578924 921.550193,661.72034 921.28316,661.862793 C921.103954,661.958394 920.92523,662.054324 920.746736,662.15072 C920.547978,662.258058 920.349381,662.366041 920.151072,662.4746 C920.01119,662.551174 919.871169,662.62819 919.731293,662.705493 C919.462461,662.854067 919.194498,663.003514 918.927073,663.154019 C918.844901,663.200265 918.762878,663.246555 918.680906,663.292945 C918.463134,663.416186 918.245447,663.540287 918.028124,663.665092 L917.65216,663.881913 L917.65216,663.881913 L917.328301,664.070152 C917.216644,664.135287 917.105085,664.200608 916.993624,664.266116 C916.796027,664.382247 916.598625,664.499032 916.401534,664.616403 C915.315755,665.263013 914.240085,665.92699 913.174329,666.608569 C913.10791,666.651046 913.041148,666.693836 912.974426,666.736694 C912.707085,666.90842 912.440783,667.080986 912.175114,667.254656 C912.065611,667.326238 911.955894,667.398219 911.846286,667.470389 C911.57428,667.649488 911.303247,667.829544 911.032889,668.010755 C910.950529,668.065958 910.868154,668.12132 910.785843,668.176789 C910.532623,668.347433 910.280174,668.518974 910.028327,668.691526 C909.909815,668.772724 909.791208,668.854304 909.672734,668.936109 C909.4431,669.09467 909.214176,669.253933 908.985761,669.414036 C908.868148,669.496475 908.75065,669.579151 908.633287,669.662051 C908.394512,669.830709 908.156093,670.000437 907.918242,670.171088 C907.810748,670.248212 907.703615,670.325348 907.596599,670.40267 C907.382947,670.55704 907.169558,670.712302 906.956638,670.868311 C906.342631,671.318197 905.732266,671.774481 905.125894,672.236947 C904.933156,672.383944 904.740972,672.531449 904.549195,672.679576 C904.44592,672.759344 904.342436,672.839547 904.239071,672.919931 C903.997217,673.108016 903.756248,673.296909 903.515936,673.486791 C903.432052,673.553073 903.348362,673.619384 903.264752,673.685815 C903.039019,673.865168 902.813718,674.045519 902.589007,674.226744 C902.425254,674.358808 902.26194,674.491234 902.098942,674.624124 C901.970908,674.728507 901.842841,674.833361 901.714971,674.938502 C901.541546,675.081101 901.368705,675.224042 901.196226,675.367507 C901.012524,675.520307 900.829071,675.673838 900.646032,675.827964 C900.514841,675.938434 900.384386,676.048765 900.254144,676.159399 C899.933889,676.431436 899.614531,676.70564 899.296476,676.981675 L899.296517,676.981639 C898.97094,677.264203 898.64677,677.548648 898.323984,677.835006 C898.23309,677.915641 898.141888,677.9968 898.050797,678.078113 C897.82604,678.278743 897.602246,678.480044 897.379133,678.682272 C897.238331,678.809893 897.097793,678.93789 896.957527,679.066256 C896.796478,679.213642 896.635881,679.361428 896.475645,679.509698 C896.333817,679.640934 896.192103,679.772707 896.050675,679.904861 C895.872526,680.071327 895.694914,680.238315 895.517758,680.405905 C895.368497,680.547105 895.219501,680.688788 895.070831,680.830896 C894.946767,680.949485 894.82305,681.068254 894.699561,681.18732 C894.505632,681.3743 894.312074,681.562195 894.119083,681.75082 C894.020227,681.84744 893.92177,681.944003 893.823463,682.040757 C893.635561,682.225688 893.447998,682.411517 893.260982,682.598041 C892.365357,683.491309 891.482212,684.400593 890.612049,685.325681 C890.518648,685.424977 890.425427,685.524423 890.332356,685.624051 C890.145511,685.82406 889.959183,686.024896 889.773465,686.226463 C889.634959,686.376789 889.496938,686.527364 889.359257,686.678343 C889.20544,686.847015 889.051806,687.016463 888.898601,687.186417 C888.772969,687.325784 888.647999,687.465073 888.523318,687.6047 C888.361828,687.785547 888.200609,687.967201 888.039877,688.149424 C887.903999,688.30347 887.768279,688.458138 887.632911,688.613212 C887.47284,688.796587 887.313552,688.980191 887.154756,689.16436 C887.055779,689.279152 886.956781,689.39441 886.857977,689.509888 C886.625012,689.782169 886.393295,690.055462 886.162658,690.329976 L886.041621,690.474269 L886.041621,690.474269 L886.012114,690.509516 C885.729817,690.846854 885.449147,691.186027 885.170121,691.527027 C856.295507,726.814912 850.091247,775.486911 869.19,816.89 C865.538083,816.453516 861.865884,816.229885 858.19,816.22 L858.19,816.22 L856.650208,816.232639 C805.935615,817.060288 765.08,858.429398 765.08,909.34 C765.08,910.56 765.17,911.78 765.17,913 C756.961284,910.628259 748.568486,909.425253 740.217001,909.348266 L739.353176,909.344317 C719.201128,909.345818 699.335295,915.899961 682.94,928.41 C660.09667,908.087236 631.103028,897.270382 601.6199,896.913535 L600.237542,896.904473 C584.106347,896.888209 567.855214,900.004703 552.41,906.41 C528.990298,875.455067 492.840762,857.581788 454.944255,857.020906 L453.557038,857.008118 C445.69195,856.979508 437.757533,857.69721 429.851651,859.19892 C383.346462,868.032509 345.86976,902.467039 333.14,948.06 C329.344906,947.587056 325.524444,947.346607 321.7,947.34 L321.7,947.34 C321.388233,947.339458 321.076583,947.34049 320.765062,947.343091 C320.746856,947.343243 320.728192,947.343404 320.709529,947.343571 C320.11423,947.348902 319.519842,947.359954 318.926005,947.376707 C318.860374,947.378559 318.794685,947.380482 318.729003,947.382474 C318.49993,947.389425 318.27094,947.397223 318.042037,947.405868 C317.947084,947.409455 317.85209,947.413189 317.757111,947.417069 C317.548653,947.425585 317.340392,947.434798 317.132209,947.444711 C317.027855,947.44968 316.923538,947.454824 316.81924,947.460144 C316.63778,947.4694 316.456128,947.479202 316.274539,947.489537 C316.154004,947.496398 316.033714,947.50348 315.913453,947.510796 C315.674052,947.52536 315.434802,947.540848 315.195669,947.55726 C315.151062,947.560321 315.106415,947.563418 315.061771,947.566547 C314.809259,947.584245 314.556855,947.602976 314.304588,947.622737 C314.241655,947.627667 314.178981,947.63264 314.116315,947.637678 C313.878977,947.656755 313.641515,947.676766 313.404181,947.697688 C313.334106,947.703865 313.264126,947.710115 313.194156,947.716443 C312.899882,947.74306 312.605776,947.771082 312.311879,947.800503 C312.234304,947.808269 312.157315,947.816074 312.08034,947.823975 C311.853273,947.847281 311.625932,947.871467 311.398723,947.89649 C311.295135,947.907897 311.19145,947.919494 311.087792,947.931264 C310.909591,947.951499 310.7316,947.972234 310.553694,947.993482 C310.426464,948.008677 310.299085,948.024159 310.171751,948.039904 C309.981175,948.06347 309.791144,948.087567 309.601214,948.112251 C309.476522,948.128455 309.351505,948.144962 309.226532,948.161722 C309.081823,948.181129 308.937221,948.20087 308.792681,948.220951 C308.650289,948.240733 308.507983,948.260841 308.365738,948.281279 C308.210185,948.303628 308.054786,948.326359 307.899461,948.349483 C307.7182,948.376468 307.536835,948.404019 307.355572,948.432105 C307.302793,948.440284 307.250427,948.448444 307.198069,948.456649 C306.963915,948.493343 306.729519,948.530999 306.495301,948.569551 C306.434638,948.579536 306.374294,948.58953 306.313962,948.599583 C306.106643,948.63413 305.899283,948.669409 305.692067,948.705391 C305.17746,948.794748 304.663523,948.888476 304.150528,948.986522 C303.961512,949.022647 303.772466,949.05939 303.58355,949.096719 C303.415293,949.129965 303.247038,949.163697 303.078889,949.197895 C302.97128,949.21978 302.864186,949.241759 302.757135,949.263926 C302.543147,949.308235 302.328782,949.353416 302.114595,949.399354 C302.080011,949.406772 302.046012,949.414084 302.012017,949.421415 C301.769916,949.473625 301.527555,949.526911 301.28543,949.581167 C301.182213,949.604295 301.078891,949.627633 300.975614,949.651148 C300.774703,949.696892 300.574016,949.74329 300.373497,949.790354 C300.299973,949.807611 300.226287,949.825001 300.152623,949.842481 C299.905997,949.901006 299.659943,949.960461 299.41415,950.02092 C299.373779,950.030851 299.333449,950.0408 299.293126,950.050776 C299.033977,950.11489 298.775036,950.180143 298.516395,950.24651 C298.478399,950.25626 298.440095,950.266115 298.401798,950.275994 C298.131211,950.345796 297.861276,950.416733 297.591678,950.488885 C297.5637,950.496373 297.536371,950.503701 297.509044,950.511041 C297.298379,950.567628 297.087205,950.625155 296.876243,950.683428 C296.777386,950.710734 296.678503,950.738225 296.579668,950.765879 C296.303649,950.843112 296.02845,950.921491 295.753624,951.001143 L295.726079,951.009131 C295.312195,951.129225 294.899159,951.252203 294.487001,951.378058 C294.324336,951.427728 294.161437,951.477961 293.998678,951.528644 C293.927219,951.550896 293.855843,951.573217 293.784494,951.595625 C293.572951,951.662061 293.361829,951.729198 293.150948,951.797093 C293.054791,951.828051 292.958438,951.859247 292.862136,951.890601 C292.67185,951.952554 292.481894,952.015081 292.292138,952.078223 C292.182984,952.114545 292.073608,952.151167 291.9643,952.187993 C291.762795,952.255883 291.561781,952.324377 291.360999,952.393563 C291.311942,952.410468 291.262947,952.427397 291.213965,952.444368 C290.988049,952.522639 290.762339,952.60182 290.536929,952.681878 C290.451778,952.71212 290.366505,952.742547 290.281275,952.773099 C290.111067,952.834114 289.941366,952.895507 289.771839,952.957398 C289.641655,953.004925 289.511064,953.052934 289.380577,953.101238 C289.28871,953.135247 289.197292,953.169254 289.105925,953.203406 C288.923717,953.271513 288.741398,953.340317 288.559289,953.4097 C288.012229,953.618129 287.467338,953.831665 286.924412,954.05039 L286.877332,954.069372 C286.871323,954.071797 286.865314,954.074222 286.859305,954.076648 C126.089742,872.037548 16,704.875193 16,512 C16,238.066764 238.066764,16 512,16 C785.933236,16 1008,238.066764 1008,512 C1008,559.306233 1001.37736,605.065666 989.008653,648.401741 C989.006153,648.396848 989.002821,648.39652 988.999489,648.396193 C988.965142,648.392823 988.932795,648.389661 988.900448,648.386514 C988.784877,648.375267 988.669243,648.364186 988.55361,648.353275 C988.267566,648.326286 987.981836,648.300369 987.696123,648.275495 C987.488538,648.257421 987.280183,648.239834 987.07184,648.222801 C986.864589,648.205857 986.657683,648.189488 986.450791,648.173663 C986.237688,648.157364 986.024673,648.141649 985.811673,648.126511 C985.563029,648.10884 985.314289,648.091949 985.065575,648.075844 C984.942395,648.067868 984.819053,648.060074 984.695718,648.052474 C984.390895,648.033691 984.086454,648.016107 983.78206,647.9997 C983.629406,647.991471 983.476392,647.98352 983.323391,647.975865 C983.035327,647.961455 982.747693,647.948114 982.460109,647.935821 C982.339208,647.930653 982.217903,647.925653 982.096606,647.92084 C981.822508,647.909965 981.548823,647.900053 981.275189,647.891089 C981.089507,647.885006 980.903515,647.87935 980.717549,647.874131 C980.301928,647.862469 979.886749,647.852998 979.471713,647.845703 L979.471417,647.845698 Z M1023.99835,513.931689 C1023.92668,539.041957 1022.00804,564.084862 1018.27001,588.859336 L1018.23412,589.093623 C1022.03144,563.948744 1024,538.204263 1024,512 L1024,512 Z" id="天空" fill="url(#linearGradient-1)"></path>
                <g id="星辰大海LOGO-黑白">
                    <path d="M328.38,665.35 C331.11381,665.35 333.33,667.56619 333.33,670.3 C333.33,673.03381 331.11381,675.25 328.38,675.25 C325.64619,675.25 323.43,673.03381 323.43,670.3 C323.43,667.56619 325.64619,665.35 328.38,665.35 Z M470.71,632.13 C472.919139,632.13 474.71,633.920861 474.71,636.13 C474.71,638.339139 472.919139,640.13 470.71,640.13 C468.500861,640.13 466.71,638.339139 466.71,636.13 C466.71,633.920861 468.500861,632.13 470.71,632.13 Z M93.78,515.63 C95.989139,515.63 97.78,517.420861 97.78,519.63 C97.78,521.839139 95.989139,523.63 93.78,523.63 C91.570861,523.63 89.78,521.839139 89.78,519.63 C89.78,517.420861 91.570861,515.63 93.78,515.63 Z M502.6,488.45 C505.880571,488.45 508.54,491.109429 508.54,494.39 C508.54,497.670571 505.880571,500.33 502.6,500.33 C499.319429,500.33 496.66,497.670571 496.66,494.39 C496.66,491.109429 499.319429,488.45 502.6,488.45 Z M645.917408,447.141488 C646.963591,444.615778 649.859184,443.416384 652.384894,444.462568 C654.910605,445.508751 656.109998,448.404344 655.063815,450.930054 C654.017631,453.455765 651.122039,454.655159 648.596328,453.608975 C646.070618,452.562791 644.871224,449.667199 645.917408,447.141488 Z M364.77,396.41 C368.050571,396.41 370.71,399.069429 370.71,402.35 C370.71,405.630571 368.050571,408.29 364.77,408.29 C361.489429,408.29 358.83,405.630571 358.83,402.35 C358.83,399.069429 361.489429,396.41 364.77,396.41 Z M260.62,237.56 C262.829139,237.56 264.62,239.350861 264.62,241.56 C264.62,243.769139 262.829139,245.56 260.62,245.56 C258.410861,245.56 256.62,243.769139 256.62,241.56 C256.62,239.350861 258.410861,237.56 260.62,237.56 Z M699.13,220 C700.45227,219.983936 701.725779,220.498675 702.665521,221.429019 C703.605263,222.359363 704.132774,223.627636 704.13,224.95 C704.150268,226.976738 702.944992,228.815209 701.078317,229.604893 C699.211641,230.394576 697.052903,229.979228 695.612527,228.553256 C694.172151,227.127284 693.735128,224.972829 694.506012,223.098311 C695.276896,221.223793 697.103161,220.000101 699.13,220 Z" id="小圆点" fill="#FFFFFF" style="mix-blend-mode: overlay;"></path>
                    <path d="M364.77,474.73 L370.24,496.63 C372.864167,507.133936 380.670795,515.570373 390.94,519 L390.94,519 L408,524.69 L390.94,530.39 C380.672255,533.816127 372.865472,542.24896 370.24,552.75 L370.24,552.75 L364.77,574.65 L359.29,552.75 C356.667937,542.247116 348.859846,533.81287 338.59,530.39 L338.59,530.39 L321.53,524.69 L338.59,519 C348.861306,515.573629 356.669241,507.135778 359.29,496.63 L359.29,496.63 L364.77,474.73 Z M585.225,220.727839 C585.258446,220.727839 585.288361,220.748645 585.3,220.78 L585.3,220.78 L591.46,245.4 C596.711949,266.409309 612.328784,283.281977 632.87,290.14 L632.87,290.14 L650.43,295.99 C650.461355,296.001639 650.482161,296.031554 650.482161,296.065 C650.482161,296.098446 650.461355,296.128361 650.43,296.14 L650.43,296.14 L632.87,302 C612.33013,308.862753 596.717029,325.739233 591.47,346.75 L591.47,346.75 L585.31,371.37 C585.298361,371.401355 585.268446,371.422161 585.235,371.422161 C585.201554,371.422161 585.171639,371.401355 585.16,371.37 L585.16,371.37 L579,346.75 C573.749147,325.734515 558.127582,308.857039 537.58,302 L537.58,302 L520,296.15 C519.968645,296.138361 519.947839,296.108446 519.947839,296.075 C519.947839,296.041554 519.968645,296.011639 520,296 L520,296 L537.59,290.14 C558.131216,283.281977 573.748051,266.409309 579,245.4 L579,245.4 L585.15,220.78 C585.161639,220.748645 585.191554,220.727839 585.225,220.727839 Z M364.77,178.42 L368.71,194.18 C371.334167,204.683936 379.140795,213.120373 389.41,216.55 L389.41,216.55 L401.16,220.47 L389.41,224.39 C379.140154,227.81287 371.332063,236.247116 368.71,246.75 L368.71,246.75 L364.77,262.51 L360.83,246.75 C358.200913,236.247522 350.390551,227.814896 340.12,224.39 L340.12,224.39 L328.38,220.47 L340.12,216.55 C350.389914,213.118354 358.198817,204.683533 360.83,194.18 L360.83,194.18 L364.77,178.42 Z" id="四角星" fill="#FFFFFF"></path>
                    <path d="M408,738.85 C412.374095,738.85 415.92,742.395905 415.92,746.77 C415.92,749.973341 413.990354,752.86126 411.030853,754.087126 C408.071352,755.312991 404.664818,754.63539 402.399714,752.370286 C400.13461,750.105182 399.457009,746.698648 400.682874,743.739147 C401.90874,740.779646 404.796659,738.85 408,738.85 Z M177.587688,630.172417 C183.042637,617.003005 198.140665,610.749197 211.310078,616.204146 C224.47949,621.659095 230.733299,636.757124 225.278349,649.926536 C219.8234,663.095949 204.725372,669.349757 191.555959,663.894807 C178.386547,658.439858 172.132739,643.34183 177.587688,630.172417 Z M689.73,596.35 C691.939139,596.35 693.73,598.140861 693.73,600.35 C693.73,602.559139 691.939139,604.35 689.73,604.35 C687.520861,604.35 685.73,602.559139 685.73,600.35 C685.73,598.140861 687.520861,596.35 689.73,596.35 Z M165.19,380.09 C175.572953,380.09 183.99,388.507047 183.99,398.89 C183.99,409.272953 175.572953,417.69 165.19,417.69 C154.807047,417.69 146.39,409.272953 146.39,398.89 C146.39,388.507047 154.807047,380.09 165.19,380.09 Z" id="大圆点" fill="#FFFFFF"></path>
                    <path d="M681.92,706.4 L903.83,526 L689.61,715.45 C688.020168,716.85584 685.801096,717.306725 683.788687,716.63281 C681.776278,715.958895 680.276264,714.262565 679.853687,712.18281 C679.43111,710.103055 680.150168,707.95584 681.74,706.55 L681.92,706.4 Z" id="流星-渐变" fill="url(#linearGradient-2)" opacity="0.5"></path>
                    <path d="M512,-9.09494702e-13 C794.769792,-9.09494702e-13 1024,229.230208 1024,512 C1024,564.408527 1016.12574,614.977922 1001.49577,662.589635 C1001.30574,663.178424 1001.12277,663.770161 1000.93875,664.361438 C1000.46253,665.920363 999.971131,667.472594 999.472559,669.021604 C999.212711,669.801798 998.958654,670.584749 998.702763,671.36687 C998.222865,672.859811 997.728789,674.346323 997.228101,675.829791 C996.960701,676.597316 996.698864,677.367137 996.435247,678.136131 C995.918902,679.666211 995.388323,681.189953 994.850767,682.710399 C994.663433,683.217669 994.482155,683.727894 994.300092,684.237746 C993.112434,687.585318 991.88417,690.91367 990.622519,694.22555 C990.457819,694.638554 990.298946,695.054027 990.139547,695.46924 C989.59764,696.899696 989.043256,698.324318 988.482693,699.745828 C988.144457,700.585682 987.809887,701.427634 987.47315,702.268486 C986.935817,703.627417 986.387203,704.98021 985.832989,706.330112 C985.46329,707.214281 985.096652,708.100287 984.727604,708.985036 C984.171546,710.33377 983.604476,711.676772 983.031854,713.016835 C982.662653,713.865988 982.296463,714.716636 981.928036,715.566089 C981.343242,716.928672 980.747617,718.285503 980.146292,719.639241 C979.879137,720.227114 979.615728,720.817164 979.351235,721.406623 C978.158571,724.077597 976.939112,726.733453 975.697714,729.376961 C975.256662,730.304423 974.817344,731.232735 974.375323,732.159509 C973.821379,733.332189 973.258767,734.500167 972.691863,735.665672 C972.187729,736.691444 971.684315,737.717742 971.177574,738.742101 C970.605986,739.907728 970.026337,741.068169 969.442421,742.226089 C968.929542,743.233474 968.416851,744.241908 967.900924,745.248409 C967.325795,746.379618 966.743177,747.505736 966.156512,748.629405 C965.578674,749.727425 965.000424,750.825309 964.41831,751.920828 C963.87515,752.951343 963.325103,753.977916 962.771666,755.002388 C962.005595,756.412604 961.236546,757.820423 960.461096,759.224213 C959.669917,760.663805 958.869076,762.097052 958.061566,763.526032 C957.339116,764.797665 956.614006,766.068177 955.883628,767.335268 C955.323807,768.312885 954.75829,769.286433 954.189662,770.257938 C953.53631,771.368114 952.881377,772.477533 952.222389,773.584255 C951.623327,774.596077 951.018377,775.604041 950.410065,776.609743 C949.732401,777.724684 949.052905,778.838521 948.369285,779.949549 C947.79918,780.881193 947.224038,781.809182 946.646018,782.73519 C945.879619,783.958178 945.110204,785.179379 944.335786,786.397086 C943.801932,787.241028 943.26375,788.081772 942.723184,788.920835 C941.476725,790.85138 940.21941,792.774571 938.949565,794.688728 L938.754411,794.986505 C938.360011,795.580085 937.964406,796.172795 937.567599,796.764632 C936.6646,798.107867 935.757058,799.447796 934.843355,800.783176 C934.280641,801.608886 933.714058,802.431727 933.145135,803.252824 C932.335403,804.418374 931.522341,805.581561 930.704582,806.7412 C930.086668,807.620301 929.464878,808.496137 928.840408,809.369927 C928.016876,810.519602 927.189839,811.666854 926.358183,812.810531 C925.777906,813.610958 925.194236,814.40871 924.608318,815.204704 C923.630629,816.530679 922.647843,817.852545 921.658854,819.169486 C921.185217,819.802228 920.709025,820.433254 920.231409,821.063142 C918.801285,822.947348 917.359441,824.82195 915.904972,826.686221 C915.480389,827.232037 915.05383,827.776484 914.626194,828.320044 C913.548446,829.688474 912.464724,831.051731 911.374222,832.409309 C910.798163,833.127738 910.219526,833.844106 909.639001,834.558879 C908.685532,835.731686 907.727416,836.900855 906.764244,838.065689 C906.133727,838.829219 905.500731,839.590229 904.865576,840.34937 C903.900931,841.501449 902.931511,842.649899 901.957145,843.794007 C901.357142,844.499271 900.754848,845.202606 900.150683,845.904284 C898.94886,847.299471 897.740183,848.688153 896.524171,850.070225 C896.154367,850.491008 895.783468,850.911155 895.411892,851.330688 C893.793075,853.158063 892.161712,854.973865 890.517625,856.777869 C890.146647,857.185143 889.775264,857.591325 889.403236,857.996905 C888.150209,859.362806 886.889617,860.722326 885.621765,862.074958 C885.013344,862.724075 884.403496,863.371313 883.791983,864.016958 C882.72229,865.146428 881.64739,866.271115 880.567435,867.390894 C879.924321,868.05756 879.279301,868.722743 878.632495,869.386178 C877.49771,870.550376 876.357585,871.708827 875.212006,872.861854 C874.643076,873.434159 874.072863,874.005371 873.501311,874.575241 C872.171739,875.901303 870.833705,877.220924 869.488474,878.5332 C869.089847,878.921587 868.69038,879.309995 868.290283,879.697757 C866.544321,881.390424 864.786245,883.070363 863.016292,884.737835 C862.606393,885.123372 862.195387,885.509301 861.783744,885.894558 C860.389266,887.200327 858.98772,888.49752 857.578938,889.786936 C857.036855,890.282345 856.493872,890.777179 855.949823,891.270858 C854.677184,892.426464 853.398315,893.575337 852.113654,894.717839 C851.508083,895.255553 850.901795,895.792183 850.294228,896.327394 C849.017918,897.452596 847.735362,898.571194 846.447203,899.68348 C845.860427,900.18921 845.272929,900.694177 844.684276,901.197831 C843.004731,902.635833 841.31521,904.062672 839.616375,905.478716 C839.459186,905.608721 839.302444,905.739212 839.145622,905.86961 C837.241366,907.454071 835.324841,909.024446 833.39679,910.581116 C832.966428,910.927491 832.535564,911.27421 832.104129,911.620246 C830.622801,912.809471 829.134366,913.989811 827.639246,915.162014 C827.044045,915.627514 826.448889,916.092008 825.852682,916.555213 C824.488855,917.61597 823.118403,918.669681 821.742492,919.716587 C821.12377,920.186165 820.505103,920.654682 819.885341,921.121823 C818.443329,922.209947 816.994055,923.290404 815.538898,924.363343 C815.009758,924.752264 814.480712,925.140781 813.950893,925.528305 C809.977604,928.435743 805.96016,931.286544 801.900404,934.080288 C801.396068,934.426059 800.891786,934.771755 800.386855,935.11657 C798.864004,936.157819 797.334492,937.190275 795.799132,938.214655 C795.138885,938.653859 794.478286,939.092393 793.816613,939.529431 C792.421978,940.45191 791.021633,941.367045 789.616555,942.275484 C788.90602,942.733556 788.195261,943.190599 787.4833,943.64593 C785.992559,944.600648 784.495674,945.547085 782.993569,946.485949 C782.426,946.839378 781.858216,947.192716 781.28969,947.544972 C777.096941,950.144113 772.863374,952.683382 768.590653,955.16263 C768.030889,955.486118 767.471152,955.809489 766.910746,956.131829 C765.324603,957.045479 763.732445,957.949938 762.134992,958.846078 C761.469142,959.218302 760.803036,959.590017 760.136017,959.960285 C758.585481,960.822304 757.029175,961.675654 755.46798,962.521126 C754.830985,962.8648 754.194164,963.207926 753.556535,963.54974 C751.868169,964.456114 750.173082,965.352557 748.47239,966.23973 C747.963126,966.504115 747.453806,966.768713 746.943986,967.032479 C744.723187,968.182723 742.492643,969.316045 740.252758,970.433435 C740.151925,970.482485 740.050909,970.532836 739.949874,970.583155 C737.852467,971.628981 735.746995,972.659536 733.633467,973.676005 C732.992826,973.982881 732.352312,974.289282 731.711064,974.594388 C730.12386,975.350804 728.531178,976.09852 726.93404,976.838247 C726.162015,977.194609 725.389871,977.549891 724.616695,977.903305 C723.102983,978.59641 721.584405,979.28156 720.061907,979.959499 C719.301107,980.297087 718.539868,980.63382 717.777656,980.968749 C716.019034,981.742689 714.254725,982.506071 712.485304,983.259779 C711.992287,983.468634 711.499645,983.677565 711.00661,983.885745 C708.68193,984.868468 706.34761,985.833723 704.004671,986.782137 C703.79646,986.865302 703.588645,986.949266 703.380762,987.033097 C701.287912,987.878175 699.187784,988.708869 697.080904,989.526022 C696.426886,989.778595 695.772208,990.030956 695.116883,990.28201 C693.452314,990.92078 691.783412,991.550084 690.110383,992.170895 C689.336886,992.456858 688.562916,992.741917 687.788069,993.025158 C686.127134,993.633349 684.461647,994.232318 682.792184,994.822874 C682.103697,995.065391 681.415131,995.307299 680.725894,995.547774 C678.748341,996.238762 676.764527,996.917185 674.775264,997.583727 C674.391967,997.711163 674.009227,997.838901 673.626286,997.9662 C671.217097,998.768058 668.799173,999.551758 666.373443,1000.31788 C665.961706,1000.44696 665.550141,1000.57637 665.138353,1000.70528 C663.180098,1001.31923 661.216234,1001.92095 659.247387,1002.51114 C658.488349,1002.73774 657.729576,1002.96326 656.970068,1003.18707 C655.287563,1003.68378 653.60062,1004.1714 651.910119,1004.65055 C651.107542,1004.87713 650.304526,1005.1026 649.500714,1005.32616 C647.812192,1005.79668 646.119653,1006.25799 644.423647,1006.71082 C643.681351,1006.90814 642.939034,1007.10454 642.196058,1007.29931 C640.056358,1007.86108 637.910544,1008.40866 635.759359,1008.94263 C635.475387,1009.01228 635.192194,1009.08232 634.908909,1009.15212 C632.426641,1009.76458 629.936289,1010.35832 627.438954,1010.93379 C626.875193,1011.06289 626.312051,1011.19164 625.748556,1011.31947 C623.874992,1011.74529 621.99681,1012.16019 620.114786,1012.56474 C619.260987,1012.74748 618.4061,1012.92895 617.550428,1013.10827 C615.876736,1013.45981 614.200306,1013.80234 612.520914,1014.13666 C611.678747,1014.30355 610.835959,1014.46912 609.992432,1014.63261 C608.234904,1014.97401 606.473691,1015.30575 604.709319,1015.62844 C603.96243,1015.76431 603.215144,1015.89926 602.467296,1016.03259 C600.218992,1016.43416 597.96561,1016.82032 595.707251,1017.1917 C595.454314,1017.23258 595.201851,1017.2739 594.949325,1017.31504 C592.39545,1017.73179 589.834618,1018.12902 587.267587,1018.50721 C586.701561,1018.58991 586.135237,1018.67237 585.568613,1018.7539 C583.620208,1019.03496 581.668269,1019.30435 579.71285,1019.56271 C578.86724,1019.67376 578.020872,1019.78344 577.173858,1019.89105 C575.447436,1020.11104 573.718288,1020.32178 571.986501,1020.52387 C571.111488,1020.62532 570.235956,1020.72521 569.359757,1020.82289 C567.561643,1021.02399 565.760585,1021.21514 563.956764,1021.39693 C563.184118,1021.47415 562.411209,1021.55028 561.637798,1021.62468 C559.180165,1021.86176 556.717004,1022.08085 554.24889,1022.28244 C554.153356,1022.28962 554.057195,1022.29744 553.961026,1022.30524 C551.347693,1022.51785 548.729476,1022.71015 546.105862,1022.8827 C545.457711,1022.9247 544.80999,1022.96608 544.161942,1023.00624 C542.23425,1023.12634 540.303185,1023.23518 538.369289,1023.33329 C537.491339,1023.37722 536.612232,1023.41958 535.732547,1023.45972 C533.970614,1023.54071 532.206894,1023.61217 530.440897,1023.67469 C529.549235,1023.70565 528.656682,1023.73495 527.763554,1023.76196 C525.894232,1023.81909 524.022575,1023.8656 522.14845,1023.90203 C521.395658,1023.91606 520.642448,1023.92907 519.888843,1023.94046 C517.264136,1023.9807 514.634391,1024.0006 512,1024.0006 C470.38889,1024.06417 429.091643,1019.03266 389.002338,1009.13053 C388.966656,1009.12144 388.930966,1009.11264 388.895277,1009.10383 C386.443647,1008.49795 383.996543,1007.87361 381.554165,1007.23111 C381.229087,1007.14836 380.904681,1007.0628 380.5804,1006.97693 C378.438641,1006.40598 376.300028,1005.82391 374.165214,1005.2279 C373.622776,1005.08186 373.082864,1004.93033 372.543314,1004.77794 C370.620361,1004.22848 368.698255,1003.67277 366.779373,1003.10572 C365.894362,1002.85187 365.013232,1002.58912 364.133101,1002.32406 C362.562304,1001.84247 360.990618,1001.36045 359.421196,1000.87081 C358.327426,1000.53907 357.238969,1000.19568 356.15209,999.848759 C354.741391,999.388258 353.328723,998.930271 351.917975,998.466082 C350.773694,998.100472 349.635361,997.721618 348.498811,997.338883 L348.503187,997.329111 C347.159347,996.876395 345.817288,996.418035 344.477046,995.954038 L344.472326,995.964158 C343.17289,995.514419 341.875828,995.059594 340.581164,994.599707 L340.585825,994.589231 C339.400876,994.168231 338.217382,993.742809 337.035369,993.312971 L337.030197,993.323475 C335.601365,992.803949 334.175501,992.278241 332.752636,991.746385 L332.758042,991.73583 C331.6201,991.310456 330.483568,990.880971 329.348466,990.447381 L329.343157,990.457995 C328.045394,989.962266 326.750165,989.461409 325.457496,988.955448 L325.463241,988.945067 C324.304292,988.491478 323.146871,988.033592 321.991003,987.571415 L321.985725,987.581851 C320.69441,987.065454 319.405689,986.543951 318.119587,986.017365 L318.125303,986.00733 C316.976225,985.536926 315.828718,985.062262 314.682805,984.583344 L314.677708,984.593376 C313.426967,984.070543 312.178743,983.54289 310.933058,983.01044 L310.938538,983.000911 C309.744172,982.490514 308.551578,981.975475 307.360783,981.4558 L307.355551,981.465059 C306.110422,980.921533 304.867873,980.373199 303.627928,979.82008 L303.632879,979.811133 C302.335835,979.232701 301.040973,978.648743 299.748331,978.059268 C298.732123,977.606434 297.722622,977.141947 296.714897,976.674278 C295.193335,975.958001 293.670332,975.242221 292.150538,974.518733 C291.290856,974.119149 290.436697,973.709488 289.583855,973.297532 C288.08184,972.562751 286.57921,971.827989 285.079837,971.085647 C284.19349,970.655588 283.312737,970.216227 282.433433,969.774407 C280.923637,969.00741 279.412991,968.239105 277.905778,967.463055 C277.134978,967.074145 276.369068,966.677233 275.604291,966.278447 C274.01155,965.440283 272.419025,964.599294 270.830477,963.749603 C109.650427,877.529785 0,707.570007 0,512 C0,229.230208 229.230208,-9.09494702e-13 512,-9.09494702e-13 Z M512,32 C246.90332,32 32,246.90332 32,512 C32,705.281043 146.238652,871.880219 310.878616,947.960189 C314.459488,947.540483 318.071775,947.333693 321.7,947.34 C325.524444,947.346607 329.344906,947.587056 333.14,948.06 C345.86976,902.467039 383.346462,868.032509 429.851651,859.19892 C476.35684,850.365331 523.849388,868.660082 552.41,906.41 C596.539182,888.109151 647.247297,896.65568 682.94,928.41 C706.36185,910.538516 736.866431,904.821921 765.17,913 C765.17,911.78 765.08,910.56 765.08,909.34 C765.08,857.915149 806.765149,816.225522 858.19,816.22 C861.866555,816.229886 865.539424,816.453598 869.19,816.89 C850.091247,775.486911 856.295507,726.814912 885.170121,691.527027 C907.031426,664.810159 938.985072,649.312736 972.471324,647.928785 L972.480524,647.934385 C985.183344,604.835366 992,559.213741 992,512 C992,246.90332 777.09668,32 512,32 Z" id="云" fill="#FFFFFF"></path>
                </g>
            </g>
        </g>
    </g>
</svg>