<?xml version="1.0" encoding="UTF-8"?>
<svg width="1024px" height="1024px" viewBox="0 0 1024 1024" version="1.1" xmlns="http://www.w3.org/2000/svg" xmlns:xlink="http://www.w3.org/1999/xlink">
    <title>切片</title>
    <defs>
        <linearGradient x1="32.812493%" y1="9.48823416%" x2="65.5585798%" y2="91.8821351%" id="linearGradient-1">
            <stop stop-color="#D83BEC" offset="0%"></stop>
            <stop stop-color="#512CE3" offset="87%"></stop>
        </linearGradient>
        <linearGradient x1="44.9859307%" y1="37.4124568%" x2="56.3561327%" y2="63.8346686%" id="linearGradient-2">
            <stop stop-color="#FFFFFF" stop-opacity="0" offset="0%"></stop>
            <stop stop-color="#FFFFFF" offset="100%"></stop>
        </linearGradient>
    </defs>
    <g id="上传" stroke="none" stroke-width="1" fill="none" fill-rule="evenodd">
        <g id="1024-圆形">
            <g>
                <circle id="椭圆形" fill="#FFFFFF" fill-rule="nonzero" cx="512" cy="512" r="512"></circle>
                <g id="LOGO-彩色" transform="translate(112.000000, 112.000000)">
                    <path d="M730.566957,512.16938 C730.412939,512.227792 730.259073,512.286613 730.10536,512.345843 C730.009417,512.382814 729.913852,512.419819 729.818346,512.456983 C729.675194,512.512688 729.532069,512.568789 729.389081,512.625246 C728.820254,512.849837 728.253457,513.080099 727.688897,513.315957 C727.183584,513.527062 726.680098,513.742635 726.178467,513.962669 C726.101265,513.996532 726.024573,514.030296 725.947925,514.064164 C725.730966,514.160029 725.513984,514.256897 725.297358,514.354602 C725.206149,514.395741 725.115157,514.436958 725.024228,514.478322 C724.800337,514.580172 724.576657,514.682997 724.353366,514.786718 C724.271748,514.824631 724.190428,514.862548 724.109161,514.900583 C723.904052,514.99658 723.699047,515.093441 723.494379,515.19106 C723.405653,515.233378 723.317093,515.27579 723.228596,515.318344 C722.045783,515.887096 720.874249,516.481205 719.71492,517.100349 C719.606522,517.158238 719.497754,517.216604 719.389095,517.27519 C719.201445,517.376366 719.014488,517.477997 718.827857,517.580282 C718.745614,517.625356 718.66328,517.670642 718.58101,517.716056 C718.377051,517.828643 718.173732,517.941873 717.970808,518.055883 C717.864315,518.115713 717.757342,518.176092 717.65048,518.236688 C717.511369,518.315572 717.373037,518.394484 717.234892,518.47376 C717.061608,518.573201 716.888314,518.673391 716.715321,518.774154 C716.624068,518.827306 716.532993,518.880562 716.442002,518.933977 C716.275709,519.031597 716.109531,519.129845 715.943636,519.228625 C715.387577,519.559723 714.834926,519.896646 714.28555,520.239498 C714.228557,520.275067 714.171765,520.310594 714.11501,520.346185 C713.890351,520.487064 713.666034,520.629071 713.442276,520.77207 C713.344019,520.834865 713.246235,520.897616 713.148559,520.960556 C712.986483,521.064994 712.824509,521.170081 712.662834,521.275692 C712.555392,521.345877 712.448051,521.416312 712.340844,521.486978 C712.154927,521.609526 711.969318,521.73283 711.784115,521.856827 C711.675416,521.929603 711.567026,522.002504 711.458775,522.075643 C711.327269,522.164495 711.195863,522.25377 711.064664,522.343397 C710.91474,522.445816 710.765161,522.548643 710.615855,522.651928 C710.491225,522.738143 710.366862,522.824624 710.242691,522.911422 C710.117726,522.998775 709.992625,523.086683 709.867721,523.174914 C709.669044,523.31526 709.471365,523.456064 709.274187,523.597679 C709.20575,523.646832 709.137201,523.696206 709.068714,523.745677 C708.888758,523.875669 708.709295,524.006285 708.530256,524.137577 C708.040546,524.496691 707.554134,524.860765 707.070975,525.229867 C706.958104,525.316093 706.845528,525.402502 706.733131,525.489185 C706.622524,525.574488 706.5121,525.660046 706.40185,525.745869 C706.220684,525.886895 706.039759,526.028814 705.859308,526.171448 C705.795014,526.222268 705.730991,526.273012 705.667028,526.323845 C705.490985,526.463751 705.315261,526.604448 705.139996,526.745827 C705.030989,526.833758 704.922028,526.92206 704.813246,527.010625 C704.696417,527.105743 704.580027,527.200974 704.463844,527.296509 C704.30664,527.425772 704.149689,527.555696 703.99312,527.686174 C703.898866,527.764721 703.804727,527.843489 703.710727,527.922458 C703.57594,528.035692 703.441439,528.149339 703.307227,528.263399 C703.141998,528.403817 702.977269,528.544808 702.81298,528.68642 C702.691851,528.79083 702.570961,528.89558 702.450312,529.000667 C701.978545,529.411584 701.510406,529.827723 701.046045,530.249001 C700.955587,530.331066 700.865111,530.413474 700.774778,530.496078 C700.649376,530.610751 700.524436,530.725632 700.399776,530.840888 C700.266987,530.963658 700.134248,531.087104 700.001829,531.210977 C699.873653,531.330881 699.746054,531.450924 699.618755,531.571364 C699.521229,531.663636 699.423918,531.756105 699.326784,531.848806 C699.188299,531.98097 699.049927,532.113847 698.91192,532.247197 C698.795496,532.359692 698.679284,532.472571 698.563333,532.585787 C698.451465,532.695017 698.340324,532.804083 698.229426,532.91346 C698.108417,533.032807 697.987084,533.153134 697.866044,533.273834 C697.409212,533.729385 696.956721,534.190075 696.508497,534.656041 L696.473312,534.692639 C696.386116,534.783385 696.299082,534.874331 696.21221,534.965477 C696.084932,535.099018 695.957955,535.233036 695.83133,535.367483 C695.726482,535.478804 695.621362,535.59097 695.516487,535.703431 C695.37673,535.853298 695.237678,536.003396 695.099061,536.154017 C695.019182,536.240813 694.939502,536.327724 694.859967,536.414807 C694.727625,536.55971 694.595667,536.70511 694.464113,536.850988 C694.354308,536.972751 694.244881,537.094737 694.135738,537.217056 C694.01342,537.354136 693.891034,537.492114 693.769009,537.63051 C693.680276,537.731148 693.592136,537.831547 693.504186,537.932165 C693.358155,538.099228 693.212417,538.267161 693.067206,538.435699 C692.991793,538.523228 692.916732,538.610676 692.841811,538.698285 C692.402829,539.211618 691.968501,539.730784 691.539157,540.25549 C668.980864,567.82415 664.133787,605.849149 679.054687,638.195312 C676.202675,637.854373 673.333246,637.679599 670.460938,637.671875 C630.285273,637.676189 597.71875,670.24621 597.71875,710.421875 C597.71875,711.375 597.789062,712.328125 597.789062,713.28125 C591.376535,711.428404 584.819394,710.488481 578.294532,710.428333 L577.619668,710.425247 C561.875881,710.42642 546.355699,715.546845 533.546875,725.320312 C515.700524,709.443153 493.04924,700.992486 470.015547,700.713699 L468.935579,700.706619 C456.333084,700.693914 443.636886,703.128674 431.570312,708.132812 C413.27367,683.949271 385.031846,669.985772 355.425199,669.547583 L354.341436,669.537592 C348.196836,669.515241 341.998073,670.075945 335.821602,671.249156 C299.489424,678.150398 270.21075,705.052374 260.265625,740.671875 C257.300708,740.302388 254.315972,740.114537 251.328125,740.109375 C251.056408,740.108903 250.784806,740.10996 250.51333,740.112544 C250.42745,740.113361 250.34183,740.114328 250.256223,740.115447 C250.060522,740.118005 249.864879,740.121356 249.669308,740.125498 C249.555148,740.127915 249.44048,740.130616 249.325838,740.133589 C249.175875,740.137478 249.026241,740.141823 248.876653,740.146632 C248.766076,740.150186 248.655396,740.153998 248.544742,740.158063 C248.343568,740.165455 248.142859,740.173667 247.94224,740.182712 C247.871024,740.185922 247.79936,740.18926 247.727708,740.192703 C247.514252,740.202963 247.301281,740.214143 247.08842,740.226262 C247.028079,740.229697 246.967424,740.233226 246.906778,740.236832 C246.654023,740.25186 246.401709,740.26819 246.149564,740.285836 C246.11884,740.287986 246.088505,740.290128 246.058172,740.29229 C245.793463,740.31115 245.528495,740.331498 245.263724,740.353297 L245.203847,740.358252 C245.117452,740.365437 245.031078,740.372777 244.944726,740.380272 C244.785295,740.394109 244.62601,740.408465 244.466801,740.423347 C244.27464,740.441309 244.082549,740.460041 243.890572,740.479537 C243.824832,740.486213 243.759482,740.49294 243.694145,740.499755 C243.543446,740.515474 243.392433,740.531706 243.241494,740.548411 C243.074929,740.566846 242.908606,740.585839 242.742376,740.605406 C242.647992,740.616516 242.553335,740.627847 242.458709,740.639364 C242.2738,740.661871 242.089431,740.685034 241.905182,740.708903 C241.824313,740.719378 241.742993,740.730053 241.661697,740.740865 C241.434805,740.771043 241.208549,740.802228 240.982487,740.834476 C240.936467,740.841041 240.890478,740.847647 240.844497,740.854297 C240.348374,740.926045 239.853053,741.002945 239.358748,741.084951 C239.175628,741.115331 238.992946,741.146361 238.810407,741.178088 C238.664117,741.203514 238.517742,741.22942 238.371462,741.255775 C238.291334,741.270211 238.211288,741.284772 238.13127,741.299467 C237.94666,741.33337 237.76226,741.367977 237.578016,741.403297 C237.483803,741.421358 237.389464,741.439637 237.295166,741.458104 C237.134911,741.489487 236.974906,741.521384 236.815023,741.553819 C236.662081,741.584846 236.509126,741.616391 236.356284,741.648429 C236.301705,741.659869 236.247379,741.671322 236.193067,741.682838 C235.990543,741.725777 235.787984,741.769633 235.585634,741.814355 C235.520553,741.828739 235.455462,741.843219 235.390394,741.857789 C235.208688,741.898475 235.027064,741.93988 234.845613,741.981983 C234.582208,742.043104 234.319642,742.10558 234.057453,742.169519 C234.004002,742.182554 233.950945,742.195557 233.897903,742.208619 C233.697234,742.258037 233.496316,742.308431 233.295628,742.359685 C233.192244,742.386089 233.089596,742.412546 232.987009,742.439227 C232.800251,742.4878 232.613526,742.537162 232.427007,742.58727 C232.370596,742.602425 232.313582,742.617816 232.256587,742.633276 C232.062514,742.685923 231.869196,742.739229 231.676108,742.793336 C231.555065,742.827254 231.434047,742.861505 231.313121,742.896072 C231.202899,742.927579 231.092916,742.9593 230.98301,742.991281 C230.855529,743.028376 230.727954,743.065881 230.600483,743.103736 C230.114403,743.24809 229.62988,743.397539 229.146963,743.552068 C229.04879,743.583482 228.950427,743.61519 228.852132,743.647108 C228.645512,743.714201 228.439377,743.782164 228.233545,743.851055 C228.160303,743.875569 228.087619,743.900025 228.014974,743.924597 C227.847576,743.981216 227.67996,744.038597 227.512551,744.096594 C227.383673,744.141242 227.254925,744.186253 227.126302,744.231629 C226.993692,744.278412 226.861337,744.325539 226.729116,744.373052 C226.601502,744.41891 226.474146,744.46508 226.346916,744.511608 C226.235733,744.552268 226.124382,744.5933 226.013128,744.634606 C225.863708,744.690084 225.714478,744.746053 225.565428,744.802516 C225.43824,744.850699 225.311554,744.899098 225.184999,744.947856 L224.930835,745.046328 L224.930835,745.046328 L224.870346,745.069926 C224.70844,745.133173 224.54675,745.197007 224.385281,745.261427 L224.12258,745.366832 C224.117257,745.36898 224.112932,745.370726 224.108607,745.372472 C98.5073152,681.278885 12.5,550.683485 12.5,400 C12.5,185.989659 185.989659,12.5 400,12.5 C614.010341,12.5 787.5,185.989659 787.5,400 C787.5,436.958234 782.325999,472.708015 772.662823,506.564519 C772.660404,506.559973 772.657737,506.559711 772.65507,506.559449 C772.625413,506.556539 772.597755,506.553838 772.570098,506.551149 C772.519731,506.546252 772.469397,506.5414 772.419062,506.53659 C772.153247,506.511185 771.887355,506.486929 771.621482,506.463829 C771.462773,506.45004 771.304462,506.436695 771.146159,506.423759 C770.972431,506.409562 770.79814,506.395814 770.62386,506.382561 C770.507997,506.373751 770.392706,506.365202 770.277421,506.356868 C770.039008,506.339634 769.800297,506.323306 769.561617,506.307905 C769.460816,506.3014 769.359837,506.29505 769.258864,506.288866 C769.036626,506.275255 768.814665,506.262461 768.592736,506.250467 C768.47545,506.244129 768.358093,506.23801 768.240744,506.232115 C768.050827,506.222573 767.860804,506.213612 767.670807,506.205237 C767.503658,506.197869 767.336936,506.190971 767.170236,506.184523 C767.028691,506.179047 766.886697,506.173881 766.74472,506.169041 C766.578208,506.163365 766.412239,506.158154 766.246296,506.153389 C765.920015,506.144017 765.593255,506.136359 765.266607,506.130427 C765.197558,506.129172 765.128182,506.12799 765.058811,506.126885 C764.789292,506.122594 764.520037,506.119479 764.250866,506.117535 C764.173072,506.116973 764.095733,506.116512 764.0184,506.116147 C763.765709,506.114952 763.512681,506.114791 763.259736,506.115663 C763.173983,506.115958 763.088331,506.116372 763.002689,506.116904 C762.75586,506.118438 762.509186,506.120954 762.262599,506.124451 C762.147143,506.126087 762.031433,506.127944 761.915744,506.130017 C761.728693,506.133368 761.541668,506.137284 761.354697,506.141763 C761.191603,506.145671 761.028907,506.149998 760.866253,506.15475 C760.717284,506.159103 760.568253,506.163817 760.419258,506.168888 C760.236389,506.175113 760.053437,506.181881 759.870544,506.189189 C759.731079,506.194761 759.591744,506.200643 759.452444,506.206837 C759.281938,506.214419 759.111593,506.222464 758.941301,506.230976 C758.706216,506.242726 758.470906,506.255385 758.235703,506.268935 C758.054157,506.279395 757.873184,506.290353 757.692277,506.301839 C757.463967,506.316333 757.235509,506.331685 757.007161,506.347877 C756.84552,506.359338 756.683467,506.371256 756.521471,506.383596 C756.370995,506.395059 756.220743,506.406872 756.07054,506.419049 C755.902686,506.432657 755.734931,506.446716 755.567241,506.461228 C755.402182,506.475512 755.237155,506.490239 755.072192,506.505403 C754.925968,506.518846 754.779939,506.532619 754.633962,506.546735 C754.427389,506.566711 754.220749,506.587393 754.014217,506.608762 C753.914758,506.619053 753.815439,506.629492 753.716144,506.640089 C753.479162,506.66538 753.242139,506.691599 753.005263,506.718724 C752.906725,506.730007 752.808398,506.741426 752.710097,506.753001 C752.450727,506.78354 752.191399,506.815183 751.932258,506.847911 C751.876299,506.854979 751.82066,506.862057 751.76503,506.869185 C751.179371,506.944227 750.594344,507.02486 750.010362,507.111016 C749.677492,507.160125 749.344803,507.211052 749.012468,507.263771 C748.980173,507.268894 748.947858,507.274038 748.915547,507.279199 C748.732414,507.308447 748.54941,507.338237 748.366517,507.368569 C748.181093,507.399321 747.996114,507.430575 747.81125,507.462384 C747.731434,507.476117 747.651074,507.490053 747.570737,507.504093 C747.332495,507.545732 747.094852,507.588218 746.857409,507.631623 C746.745359,507.652105 746.633331,507.672796 746.521348,507.693692 C746.313647,507.732448 746.106275,507.771873 745.899061,507.811998 C745.773924,507.83623 745.648577,507.860769 745.523288,507.885565 C745.37287,507.915334 745.222561,507.945468 745.072337,507.975971 C744.887475,508.013507 744.703131,508.05152 744.518919,508.090089 C744.33267,508.129082 744.145811,508.168804 743.959091,508.209097 C743.854621,508.231641 743.75038,508.254323 743.646183,508.277183 C743.35746,508.340527 743.069225,508.405202 742.781334,508.47124 C742.567797,508.520223 742.354832,508.569864 742.14206,508.620251 C742.022927,508.648464 741.903959,508.676884 741.785052,508.705538 C741.640996,508.740251 741.496585,508.775415 741.352266,508.810924 C741.15414,508.85967 740.956245,508.90905 740.758525,508.959076 C740.657789,508.984564 740.557435,509.010133 740.457127,509.035869 C740.243836,509.090593 740.030761,509.146066 739.817896,509.202291 C739.713467,509.229874 739.608461,509.257805 739.503507,509.28592 C739.301551,509.340019 739.10027,509.394663 738.899183,509.449979 C738.761751,509.487785 738.624379,509.525913 738.4871,509.564355 C738.281346,509.621971 738.075698,509.680322 737.870261,509.739376 C737.788634,509.762841 737.707333,509.786332 737.626067,509.809933 C737.403198,509.874656 737.180179,509.940328 736.957416,510.006832 C736.844881,510.040429 736.732956,510.074073 736.621096,510.107927 C735.68109,510.39241 734.745152,510.691896 733.814183,511.006098 C733.705845,511.042661 733.597087,511.07959 733.488397,511.11672 C733.336224,511.168706 733.184617,511.220935 733.033144,511.273556 C732.865225,511.331889 732.697188,511.390803 732.529319,511.450199 C732.339794,511.517258 732.150461,511.584938 731.961347,511.653231 C731.874894,511.684451 731.788531,511.715783 731.702214,511.747243 C731.460891,511.835197 731.219918,511.924153 730.979311,512.014106 L730.862024,512.058044 L730.862024,512.058044 Z M799.997856,401.77686 C799.928771,421.384986 798.418123,440.939817 795.487446,460.284481 C798.459182,440.622564 800,420.49122 800,400 L800,400 Z" id="天空" fill="url(#linearGradient-1)" fill-rule="nonzero"></path>
                    <g id="星辰大海LOGO-黑白" fill-rule="evenodd" stroke-width="1">
                        <path d="M256.546875,519.804687 C258.682664,519.804687 260.414062,521.536086 260.414062,523.671875 C260.414062,525.807664 258.682664,527.539062 256.546875,527.539062 C254.411086,527.539062 252.679687,525.807664 252.679687,523.671875 C252.679687,521.536086 254.411086,519.804687 256.546875,519.804687 Z M367.742187,493.851562 C369.468077,493.851562 370.867187,495.250673 370.867187,496.976562 C370.867187,498.702452 369.468077,500.101562 367.742187,500.101562 C366.016298,500.101562 364.617187,498.702452 364.617187,496.976562 C364.617187,495.250673 366.016298,493.851562 367.742187,493.851562 Z M73.265625,402.835937 C74.9915148,402.835937 76.390625,404.235048 76.390625,405.960937 C76.390625,407.686827 74.9915148,409.085937 73.265625,409.085937 C71.5397352,409.085937 70.140625,407.686827 70.140625,405.960937 C70.140625,404.235048 71.5397352,402.835937 73.265625,402.835937 Z M392.65625,381.601562 C395.219196,381.601562 397.296875,383.679241 397.296875,386.242187 C397.296875,388.805134 395.219196,390.882812 392.65625,390.882812 C390.093304,390.882812 388.015625,388.805134 388.015625,386.242187 C388.015625,383.679241 390.093304,381.601562 392.65625,381.601562 Z M504.622975,349.329288 C505.440306,347.356076 507.702487,346.41905 509.675699,347.236381 C511.64891,348.053712 512.585936,350.315894 511.768605,352.289105 C510.951274,354.262316 508.689093,355.199343 506.715881,354.382012 C504.74267,353.564681 503.805644,351.302499 504.622975,349.329288 Z M284.976562,309.695312 C287.539509,309.695312 289.617187,311.772991 289.617187,314.335937 C289.617187,316.898884 287.539509,318.976562 284.976562,318.976562 C282.413616,318.976562 280.335937,316.898884 280.335937,314.335937 C280.335937,311.772991 282.413616,309.695312 284.976562,309.695312 Z M203.609375,185.59375 C205.335265,185.59375 206.734375,186.99286 206.734375,188.71875 C206.734375,190.44464 205.335265,191.84375 203.609375,191.84375 C201.883485,191.84375 200.484375,190.44464 200.484375,188.71875 C200.484375,186.99286 201.883485,185.59375 203.609375,185.59375 Z M546.195312,171.875 C547.228336,171.86245 548.223265,172.26459 548.957438,172.991421 C549.691612,173.718253 550.10373,174.70909 550.101562,175.742187 C550.117397,177.325577 549.175775,178.761882 547.717435,179.378822 C546.259095,179.995763 544.57258,179.671271 543.447287,178.557231 C542.321993,177.44319 541.980569,175.760022 542.582822,174.295555 C543.185075,172.831088 544.611844,171.875079 546.195312,171.875 Z" id="小圆点" fill="#FFFFFF" fill-rule="nonzero" style="mix-blend-mode: overlay;"></path>
                        <path d="M284.976563,370.882813 L289.25,387.992188 C291.300131,396.198387 297.399058,402.789354 305.421875,405.46875 L305.421875,405.46875 L318.75,409.914063 L305.421875,414.367188 C297.400199,417.043849 291.30115,423.632 289.25,431.835938 L289.25,431.835938 L284.976562,448.945313 L280.695312,431.835938 C278.646825,423.63056 272.546755,417.041305 264.523437,414.367188 L264.523437,414.367188 L251.195312,409.914063 L264.523437,405.46875 C272.547896,402.791897 278.647845,396.199827 280.695312,387.992188 L280.695312,387.992188 L284.976563,370.882813 Z M457.207031,172.443624 C457.233161,172.443624 457.256532,172.459879 457.265625,172.484375 L457.265625,172.484375 L462.078125,191.71875 C466.18121,208.132273 478.381862,221.314045 494.429688,226.671875 L494.429688,226.671875 L508.148438,231.242188 C508.172934,231.25128 508.189188,231.274652 508.189188,231.300781 C508.189188,231.326911 508.172934,231.350282 508.148438,231.359375 L508.148438,231.359375 L494.429688,235.9375 C478.382914,241.299026 466.185179,254.483775 462.085938,270.898438 L462.085938,270.898438 L457.273438,290.132813 C457.264345,290.157309 457.240973,290.173563 457.214844,290.173563 C457.188714,290.173563 457.165343,290.157309 457.15625,290.132813 L457.15625,290.132813 L452.34375,270.898438 C448.241521,254.48009 436.037173,241.294561 419.984375,235.9375 L419.984375,235.9375 L406.25,231.367188 C406.225504,231.358095 406.209249,231.334723 406.209249,231.308594 C406.209249,231.282464 406.225504,231.259093 406.25,231.25 L406.25,231.25 L419.992188,226.671875 C436.040013,221.314045 448.240665,208.132273 452.34375,191.71875 L452.34375,191.71875 L457.148438,172.484375 C457.15753,172.459879 457.180902,172.443624 457.207031,172.443624 Z M284.976563,139.390625 L288.054688,151.703125 C290.104818,159.909325 296.203746,166.500292 304.226563,169.179688 L304.226563,169.179688 L313.40625,172.242188 L304.226563,175.304688 C296.203245,177.978805 290.103175,184.56806 288.054688,192.773438 L288.054688,192.773438 L284.976563,205.085938 L281.898438,192.773438 C279.844464,184.568377 273.742618,177.980387 265.71875,175.304688 L265.71875,175.304688 L256.546875,172.242188 L265.71875,169.179688 C273.74212,166.498714 279.842826,159.90901 281.898438,151.703125 L281.898438,151.703125 L284.976563,139.390625 Z" id="四角星" fill="#FFFFFF" fill-rule="nonzero"></path>
                        <path d="M318.75,577.226562 C322.167262,577.226562 324.9375,579.996801 324.9375,583.414062 C324.9375,585.916673 323.429964,588.17286 321.117854,589.130567 C318.805743,590.088275 316.144389,589.558898 314.374777,587.789286 C312.605164,586.019673 312.075788,583.358319 313.033495,581.046209 C313.991203,578.734098 316.24739,577.226562 318.75,577.226562 Z M138.740381,492.322201 C143.00206,482.033597 154.797395,477.14781 165.085998,481.409489 C175.374602,485.671168 180.26039,497.466503 175.99871,507.755106 C171.737031,518.04371 159.941697,522.929497 149.653093,518.667818 C139.36449,514.406139 134.478702,502.610805 138.740381,492.322201 Z M538.851562,465.898437 C540.577452,465.898437 541.976562,467.297548 541.976562,469.023437 C541.976562,470.749327 540.577452,472.148437 538.851562,472.148437 C537.125673,472.148437 535.726562,470.749327 535.726562,469.023437 C535.726562,467.297548 537.125673,465.898437 538.851562,465.898437 Z M129.054687,296.945312 C137.16637,296.945312 143.742187,303.52113 143.742187,311.632812 C143.742187,319.744495 137.16637,326.320312 129.054687,326.320312 C120.943005,326.320312 114.367187,319.744495 114.367187,311.632812 C114.367187,303.52113 120.943005,296.945312 129.054687,296.945312 Z" id="大圆点" fill="#FFFFFF" fill-rule="nonzero"></path>
                        <path d="M532.75,551.875 L706.117188,410.9375 L538.757812,558.945313 C537.515756,560.043625 535.782106,560.395879 534.209912,559.869383 C532.637717,559.342887 531.465831,558.017629 531.135693,556.39282 C530.805554,554.768012 531.367319,553.0905 532.609375,551.992188 L532.75,551.875 Z" id="流星-渐变" fill="url(#linearGradient-2)" fill-rule="nonzero" opacity="0.5"></path>
                        <path d="M400,-7.03437308e-13 C620.9139,-7.03437308e-13 800,179.0861 800,400 C800,440.995633 793.832758,480.550829 782.375441,517.788422 C782.24635,518.184874 782.122946,518.58379 781.998936,518.98244 C781.612963,520.245669 781.214714,521.503463 780.810432,522.758549 C780.623585,523.317442 780.44145,523.878695 780.25811,524.439402 C779.872192,525.640086 779.474984,526.835308 779.072306,528.028011 C778.877076,528.586945 778.686056,529.148679 778.493823,529.70985 C778.077096,530.945013 777.649153,532.174263 777.215398,533.400767 C777.097683,533.715967 776.984942,534.033529 776.87181,534.350906 C775.888638,537.126022 774.870406,539.884556 773.822828,542.628594 C773.730735,542.854771 773.643156,543.083578 773.555373,543.312285 C773.117051,544.468997 772.66888,545.62035 772.215546,546.769101 C771.967067,547.384806 771.721612,548.00234 771.474666,548.619115 C771.049745,549.69383 770.615851,550.763812 770.177474,551.831479 C769.893504,552.510344 769.612021,553.190606 769.328717,553.86992 C768.887998,554.938923 768.438565,556.003336 767.984669,557.065386 C767.685962,557.752716 767.389279,558.441605 767.090718,559.129491 C766.661217,560.130198 766.223954,561.126297 765.782759,562.120263 C765.436072,562.89074 765.090718,563.662244 764.742996,564.432449 C763.921973,566.261015 763.084003,568.080091 762.232842,569.891742 C761.899136,570.592855 761.56675,571.295056 761.232383,571.996131 C760.784308,572.944397 760.329458,573.888363 759.871019,574.830261 C759.499743,575.584742 759.129269,576.339906 758.756489,577.093726 C758.295992,578.032883 757.828835,578.968155 757.358131,579.901331 C756.969308,580.664623 756.581037,581.428322 756.19039,582.190603 C755.72894,583.098246 755.261252,584.002214 754.790225,584.904162 C754.356912,585.727067 753.923467,586.550103 753.487243,587.371438 C753.048132,588.204701 752.60369,589.034319 752.156414,589.862182 C751.660048,590.77475 751.162621,591.686986 750.661754,592.597063 C749.915737,593.958347 749.159615,595.313319 748.395871,596.66341 C747.872725,597.582866 747.34848,598.501139 746.820709,599.417126 C746.364218,600.214418 745.903086,601.008336 745.439307,601.800516 C744.930473,602.664906 744.42021,603.529076 743.906798,604.391153 C743.446995,605.167694 742.982887,605.94095 742.516245,606.712504 C741.987614,607.582317 741.457599,608.451214 740.924371,609.317923 C740.470415,610.059771 740.012295,610.798929 739.551838,611.536479 C739.004146,612.409996 738.454895,613.282317 737.902376,614.152359 C737.440908,614.882555 736.975724,615.609806 736.508257,616.335447 C735.524153,617.859771 734.531585,619.377857 733.529024,620.888737 C733.202518,621.383757 732.87327,621.877523 732.542955,622.370513 C731.817478,623.450467 731.088391,624.527313 730.354211,625.600398 C729.908423,626.254546 729.459541,626.906443 729.008779,627.556938 C728.379872,628.462098 727.748459,629.365369 727.113422,630.2659 C726.630615,630.952789 726.14466,631.637293 725.65661,632.320198 C725.028371,633.197188 724.397546,634.072439 723.763279,634.945026 C723.279285,635.612785 722.792712,636.277827 722.304138,636.941305 C721.601058,637.894321 720.894397,638.845169 720.183628,639.792759 C719.764299,640.353408 719.342777,640.912294 718.919826,641.470036 C717.799214,642.94632 716.669558,644.414837 715.529984,645.875237 C715.272952,646.20589 715.014291,646.536288 714.755123,646.866268 C713.835006,648.036618 712.909702,649.201413 711.978067,650.360904 C711.554678,650.88885 711.129133,651.415716 710.70228,651.941478 C709.936438,652.883873 709.166998,653.822921 708.393383,654.75839 C707.913492,655.339462 707.431833,655.918543 706.948574,656.496239 C706.175661,657.419512 705.398681,658.339935 704.617633,659.256787 C704.162252,659.791921 703.705241,660.325534 703.246851,660.857925 C702.365028,661.881628 701.478404,662.900998 700.586721,663.915815 C700.223808,664.32922 699.860019,664.741521 699.495394,665.153065 C698.246709,666.562144 696.988126,667.962798 695.719851,669.354466 C695.428943,669.673843 695.137715,669.992362 694.845978,670.310408 C693.866314,671.37832 692.88071,672.441261 691.889425,673.498812 C691.414732,674.005246 690.939148,674.509982 690.462269,675.013479 C689.620067,675.902744 688.773467,676.788493 687.922852,677.670345 C687.439265,678.171564 686.954592,678.671416 686.468628,679.170004 C685.540694,680.122234 684.607852,681.069899 683.670338,682.012916 C683.272087,682.41325 682.873096,682.812886 682.473266,683.21168 C681.304195,684.378036 680.127494,685.537363 678.943682,686.689419 C678.757405,686.870322 678.570877,687.05149 678.384172,687.232479 C677.005587,688.569277 675.6175,689.895767 674.219935,691.212308 C673.903508,691.509899 673.58622,691.807816 673.268446,692.105221 C672.199752,693.105941 671.125673,694.100259 670.046152,695.08873 C669.572018,695.522294 669.096918,695.955225 668.620774,696.387024 C667.668007,697.251673 666.71108,698.111172 665.750002,698.966105 C665.266416,699.395624 664.781498,699.824886 664.295533,700.252986 C663.25405,701.171149 662.207808,702.083258 661.156797,702.989991 C660.761504,703.33029 660.365999,703.670155 659.969824,704.009259 C658.678357,705.115448 657.379045,706.213408 656.072676,707.303195 C655.909194,707.438779 655.746046,707.574657 655.582789,707.710408 C654.102258,708.94231 652.611939,710.163545 651.112698,711.374172 C650.747384,711.668307 650.38267,711.961754 650.017431,712.254574 C648.918662,713.136358 647.813841,714.012625 646.704302,714.883155 C646.176009,715.29675 645.647387,715.70936 645.117704,716.120668 C644.086339,716.922458 643.049813,717.719273 642.00929,718.511106 C641.517133,718.884701 641.024875,719.257512 640.531729,719.629208 C639.429729,720.460761 638.322789,721.286182 637.211454,722.10599 C636.760209,722.437901 636.308363,722.769757 635.855795,723.100684 C634.426302,724.146935 632.989423,725.183097 631.545432,726.209911 C631.432433,726.289276 631.31994,726.36918 631.207404,726.449028 C629.648707,727.555978 628.081165,728.651455 626.505463,729.73593 C626.089783,730.021012 625.673958,730.306047 625.257569,730.590315 C624.07688,731.397385 622.891143,732.197623 621.700909,732.99165 C621.201304,733.323923 620.701632,733.655642 620.201174,733.986266 C619.087258,734.723194 617.968634,735.4542 616.846145,736.179736 C616.321291,736.517954 615.796306,736.855546 615.270481,737.191942 C614.061052,737.966708 612.846365,738.734628 611.62728,739.496164 C611.217474,739.751129 610.807671,740.006093 610.397375,740.260337 C607.129153,742.286549 603.829212,744.266174 600.498814,746.19912 C600.016755,746.477878 599.534155,746.756629 599.05092,747.0344 C597.858388,747.720908 596.661943,748.400448 595.46167,749.073976 C594.911637,749.381605 594.361169,749.688787 593.809901,749.994705 C592.618704,750.656759 591.423074,751.312273 590.22375,751.961836 C589.720636,752.233317 589.217259,752.504552 588.713237,752.774739 C587.380706,753.490061 586.043409,754.197177 584.701648,754.896907 C584.323087,755.09333 583.945291,755.289583 583.567142,755.485249 C581.840039,756.379906 580.104157,757.262069 578.361032,758.13188 C578.173291,758.224584 577.985865,758.317924 577.798355,758.411122 C576.269819,759.171823 574.735381,759.922228 573.195467,760.66306 C572.67116,760.914338 572.146136,761.165506 571.62048,761.415562 C570.370084,762.011331 569.11616,762.599823 567.858704,763.181976 C567.290842,763.443932 566.722325,763.70551 566.153091,763.965791 C564.939385,764.52169 563.722149,765.070879 562.501691,765.614137 C561.930244,765.867582 561.358431,766.120499 560.785916,766.372114 C559.442649,766.96338 558.095191,767.546698 556.743916,768.122792 C556.308815,768.30739 555.873635,768.492007 555.438062,768.675875 C553.633089,769.438694 551.821017,770.187887 550.002297,770.924092 C549.828799,770.993449 549.655574,771.063428 549.482288,771.133289 C547.884165,771.778448 546.280567,772.41285 544.671928,773.037148 C544.093915,773.260618 543.515773,773.483437 542.936985,773.704949 C541.686757,774.184275 540.432846,774.656912 539.175953,775.123412 C538.545279,775.35666 537.914677,775.588892 537.283332,775.819579 C536.037711,776.275533 534.788425,776.724923 533.536275,777.168253 C532.950236,777.37494 532.363782,777.581031 531.776704,777.785792 C530.261834,778.314941 528.742748,778.83446 527.219573,779.345061 C526.899562,779.451558 526.579622,779.558356 526.259502,779.664761 C524.383898,780.288965 522.501789,780.89899 520.613626,781.495385 C520.263601,781.605193 519.913921,781.715111 519.564035,781.824562 C518.071659,782.292146 516.575013,782.750628 515.074661,783.20054 C514.45234,783.386428 513.82975,783.571463 513.206526,783.755021 C511.90948,784.137758 510.609027,784.513566 509.305867,784.882934 C508.686421,785.057805 508.067376,785.231645 507.447724,785.404031 C506.126323,785.77234 504.801033,786.133639 503.473023,786.488276 C502.874931,786.647311 502.277129,786.805457 501.678781,786.962251 C500.093069,787.378453 498.502888,787.784645 496.908928,788.181278 C496.599933,788.257509 496.291064,788.333973 495.982054,788.410078 C494.064598,788.882971 492.141456,789.341437 490.212983,789.78596 C489.744753,789.893258 489.275711,790.00048 488.806355,790.106878 C487.347498,790.438206 485.885928,790.760865 484.42138,791.075505 C483.790929,791.210337 483.160283,791.344222 482.529089,791.47662 C481.194359,791.757196 479.856645,792.030616 478.516518,792.297341 C477.870664,792.425291 477.22459,792.552216 476.57796,792.677583 C475.183966,792.948434 473.786992,793.211529 472.387475,793.467341 C471.820172,793.570461 471.252684,793.672919 470.684781,793.774179 C468.875208,794.097401 467.061321,794.4079 465.243309,794.706142 C465.105101,794.728258 464.96717,794.750811 464.829216,794.773294 C462.840576,795.097937 460.846682,795.407409 458.847977,795.702098 C458.341627,795.776214 457.834902,795.849933 457.32787,795.9227 C455.85787,796.134202 454.385335,796.337168 452.910265,796.532097 C452.240375,796.620096 451.56966,796.707004 450.898426,796.792248 C449.564809,796.96213 448.229669,797.124862 446.892515,797.280999 C446.195646,797.361859 445.497464,797.441527 444.798737,797.519396 C443.408855,797.674797 442.017363,797.822511 440.62376,797.963071 C440.000695,798.025412 439.377178,798.086829 438.753242,798.146813 C436.955606,798.320131 435.154359,798.481063 433.349715,798.630014 C433.146392,798.646304 432.943399,798.662904 432.740363,798.679352 C430.72638,798.842997 428.707757,798.99126 426.685026,799.124487 C426.108777,799.161958 425.532308,799.198686 424.955509,799.234192 C423.535891,799.322059 422.114067,799.40205 420.690279,799.474596 C419.931319,799.51279 419.17185,799.549345 418.411829,799.583778 C417.103926,799.643508 415.794499,799.696477 414.483464,799.743137 C413.752002,799.768697 413.019826,799.792773 412.287154,799.814879 C410.847035,799.8588 409.405142,799.894635 407.961374,799.92282 C407.358382,799.934123 406.754612,799.944568 406.150517,799.953673 C404.103692,799.984993 402.053653,800.000469 400,800.000469 C367.488242,800.050134 335.221735,796.118523 303.899178,788.381025 C303.879618,788.375984 303.859941,788.37113 303.840264,788.366274 C301.937629,787.896158 300.038565,787.411828 298.143142,786.913495 C297.861553,786.841614 297.580527,786.767503 297.299623,786.693093 C295.633043,786.248665 293.968468,785.795531 292.306838,785.331578 C292.082063,785.272978 291.858358,785.210376 291.634731,785.147585 L291.015331,784.968624 C289.524955,784.547071 288.036976,784.116804 286.551471,783.677844 C285.844355,783.4749 285.140542,783.264987 284.437544,783.053192 C283.22896,782.682402 282.01914,782.311316 280.811038,781.934446 C279.953178,781.674259 279.099417,781.404933 278.246897,781.132825 C277.136764,780.770508 276.024647,780.40993 274.914054,780.044432 C274.06236,779.772651 273.21541,779.490878 272.369723,779.206354 C271.341154,778.851397 270.309851,778.499572 269.279919,778.143488 C268.172453,777.769874 267.071145,777.383773 265.97205,776.993002 C265.177665,776.701024 264.380045,776.414511 263.583283,776.125431 C262.361561,775.691884 261.14691,775.244504 259.935046,774.791414 C259.085269,774.46386 258.232388,774.141629 257.380538,773.816439 C256.267109,773.401264 255.160191,772.972999 254.055666,772.539963 C253.26953,772.221913 252.479789,771.909395 251.690973,771.59432 C250.636403,771.182854 249.588131,770.758894 248.542077,770.330632 C247.677853,769.967201 246.810476,769.608564 245.944265,769.246815 C244.930181,768.832737 243.922318,768.406849 242.916574,767.976958 C241.963514,767.560406 241.00808,767.147676 240.054125,766.731138 C239.173544,766.35555 238.298679,765.969683 237.425464,765.58078 C236.318015,765.078952 235.208432,764.578806 234.100935,764.073475 C233.344765,763.736711 232.593514,763.390995 231.843521,763.043024 C230.655194,762.483751 229.46567,761.924842 228.27865,761.359916 C227.560845,761.025843 226.848054,760.683903 226.136436,760.339917 C225.012986,759.789638 223.888396,759.239628 222.766141,758.684184 C222.061713,758.342395 221.361746,757.993292 220.662951,757.6422 C219.482357,757.042495 218.301527,756.441975 217.123382,755.835399 C216.51386,755.527808 215.908218,755.213947 215.303482,754.898587 C214.057571,754.24289 212.812087,753.585103 211.569718,752.920502 C85.656747,685.558288 0,552.782247 0,400 C0,179.0861 179.0861,-7.03437308e-13 400,-7.03437308e-13 Z M400,25 C192.893219,25 25,192.893219 25,400 C25,551.000635 114.248734,681.156112 242.87346,740.593686 C245.671422,740.266005 248.493547,740.104448 251.328125,740.109375 C254.315972,740.114537 257.300708,740.302388 260.265625,740.671875 C270.21075,705.052374 299.489424,678.150398 335.821602,671.249156 C372.153781,664.347914 409.257334,678.640689 431.570313,708.132812 C466.046236,693.835274 505.661951,700.51225 533.546875,725.320312 C551.845195,711.358215 575.676899,706.892126 597.789062,713.28125 C597.789062,712.328125 597.71875,711.375 597.71875,710.421875 C597.71875,670.24621 630.285273,637.676189 670.460938,637.671875 C673.333246,637.679599 676.202675,637.854373 679.054688,638.195312 C664.133787,605.849149 668.980864,567.82415 691.539157,540.25549 C708.618353,519.382874 733.582239,507.275502 759.743459,506.194354 C769.674517,472.527435 775,436.885634 775,400 C775,192.893219 607.106781,25 400,25 Z" id="云" fill="#FFFFFF" fill-rule="nonzero"></path>
                    </g>
                </g>
            </g>
        </g>
    </g>
</svg>